<svg width="360" height="280" viewBox="0 0 360 280" xmlns="http://www.w3.org/2000/svg">
  <defs>
    <linearGradient id="bgGrad4" x1="0" y1="0" x2="1" y2="1">
      <stop offset="0%" stop-color="#1D244D"/>
      <stop offset="60%" stop-color="#02041A"/>
      <stop offset="100%" stop-color="#1A1D3E"/>
    </linearGradient>
  </defs>
  <rect width="360" height="280" fill="url(#bgGrad4)"/>

  <!-- Router body -->
  <rect x="120" y="150" width="120" height="44" rx="12" fill="#0F1330" stroke="#C7B9FF" stroke-opacity="0.2"/>
  <circle cx="150" cy="172" r="4" fill="#C7B9FF" opacity="0.9"/>
  <circle cx="164" cy="172" r="4" fill="#C7B9FF" opacity="0.5"/>
  <circle cx="178" cy="172" r="4" fill="#C7B9FF" opacity="0.25"/>

  <!-- Antennae -->
  <rect x="132" y="134" width="4" height="18" rx="2" fill="#C7B9FF" opacity="0.5"/>
  <rect x="224" y="134" width="4" height="18" rx="2" fill="#C7B9FF" opacity="0.5"/>

  <!-- Wi-Fi waves -->
  <path d="M180 126c20-12 40-12 60 0" stroke="#C7B9FF" stroke-opacity="0.5" stroke-width="2" fill="none"/>
  <path d="M180 116c26-16 52-16 78 0" stroke="#C7B9FF" stroke-opacity="0.35" stroke-width="2" fill="none"/>
  <path d="M180 106c34-22 68-22 102 0" stroke="#C7B9FF" stroke-opacity="0.22" stroke-width="2" fill="none"/>

  <!-- Shield/lock -->
  <path d="M106 120l14-6 14 6v10c0 10-7 18-14 21-7-3-14-11-14-21z" fill="#0F1330" stroke="#C7B9FF" stroke-opacity="0.35"/>
  <rect x="118" y="122" width="12" height="10" rx="3" fill="#C7B9FF" opacity="0.75"/>
  <rect x="121" y="118" width="6" height="6" rx="3" fill="#C7B9FF" opacity="0.55"/>

  <!-- Caption bars -->
  <rect x="110" y="220" width="140" height="6" rx="3" fill="#C7B9FF" opacity="0.38"/>
  <rect x="130" y="232" width="100" height="6" rx="3" fill="#C7B9FF" opacity="0.24"/>
</svg>

